<svg data-v-423bf9ae="" xmlns="http://www.w3.org/2000/svg" viewBox="0 0 884 90" class="iconLeft"><!----><!----><!----><g data-v-423bf9ae="" id="1e60bf57-ee11-4def-89ee-8254d8edf5a9" fill="#7DE38D" transform="matrix(5.836575984954834,0,0,5.836575984954834,139.24871826171875,-6.24513578414917)"><path d="M7.32 6.64L7.32 6.64L7.32 6.64Q7.32 7.24 7.13 7.76L7.13 7.76L7.13 7.76Q6.94 8.27 6.42 8.71L6.42 8.71L6.42 8.71Q5.89 9.16 5.08 9.30L5.08 9.30L7.27 13.75L6.19 13.75L4.09 9.37L2.46 9.37L2.46 13.75L1.48 13.75L1.48 3.95L4.30 3.95L4.30 3.95Q5.91 3.95 6.62 4.72L6.62 4.72L6.62 4.72Q7.32 5.49 7.32 6.64ZM4.33 4.83L2.46 4.83L2.46 8.48L4.33 8.48L4.33 8.48Q5.42 8.48 5.90 7.97L5.90 7.97L5.90 7.97Q6.38 7.45 6.38 6.68L6.38 6.68L6.38 6.68Q6.38 5.95 5.91 5.39L5.91 5.39L5.91 5.39Q5.43 4.83 4.33 4.83L4.33 4.83ZM16.00 9.88L16.00 9.88L16.00 9.88Q16.00 10.26 15.97 10.57L15.97 10.57L10.91 10.57L10.91 10.57Q11.05 11.72 11.62 12.36L11.62 12.36L11.62 12.36Q12.19 13.01 13.12 13.01L13.12 13.01L13.12 13.01Q14.03 13.01 14.83 12.45L14.83 12.45L15.36 13.10L15.36 13.10Q14.32 13.92 13.08 13.92L13.08 13.92L13.08 13.92Q11.61 13.92 10.74 12.83L10.74 12.83L10.74 12.83Q9.87 11.75 9.87 10.16L9.87 10.16L9.87 10.16Q9.87 8.40 10.74 7.41L10.74 7.41L10.74 7.41Q11.61 6.43 13.08 6.43L13.08 6.43L13.08 6.43Q14.35 6.43 15.18 7.30L15.18 7.30L15.18 7.30Q16.00 8.18 16.00 9.88ZM10.88 9.69L10.88 9.69L15.01 9.69L15.01 9.69Q14.99 8.39 14.41 7.85L14.41 7.85L14.41 7.85Q13.83 7.31 13.08 7.31L13.08 7.31L13.08 7.31Q12.04 7.31 11.49 7.94L11.49 7.94L11.49 7.94Q10.93 8.57 10.88 9.69ZM23.38 6.43L23.38 6.43L23.38 6.43Q24.28 6.43 24.70 7.00L24.70 7.00L24.70 7.00Q25.13 7.57 25.13 8.79L25.13 8.79L25.13 13.75L24.12 13.75L24.12 9.37L24.12 9.37Q24.12 8.27 23.94 7.81L23.94 7.81L23.94 7.81Q23.76 7.34 23.20 7.34L23.20 7.34L23.20 7.34Q22.61 7.34 22.34 7.92L22.34 7.92L22.34 7.92Q22.06 8.51 22.06 9.46L22.06 9.46L22.06 13.75L21.06 13.75L21.06 9.18L21.06 9.18Q21.06 8.78 21.03 8.49L21.03 8.49L21.03 8.49Q21 8.20 20.92 7.92L20.92 7.92L20.92 7.92Q20.83 7.63 20.65 7.48L20.65 7.48L20.65 7.48Q20.47 7.34 20.19 7.34L20.19 7.34L20.19 7.34Q19.61 7.34 19.31 7.94L19.31 7.94L19.31 7.94Q19.00 8.54 19.00 9.46L19.00 9.46L19.00 13.75L17.99 13.75L17.99 6.59L18.94 6.59L18.94 7.46L18.94 7.46Q19.39 6.43 20.31 6.43L20.31 6.43L20.31 6.43Q20.89 6.43 21.26 6.75L21.26 6.75L21.26 6.75Q21.63 7.07 21.77 7.55L21.77 7.55L21.77 7.55Q22.36 6.43 23.38 6.43ZM32.59 12.92L32.59 12.92L32.59 12.92Q31.68 13.92 30.18 13.92L30.18 13.92L30.18 13.92Q28.69 13.92 27.78 12.93L27.78 12.93L27.78 12.93Q26.88 11.94 26.88 10.18L26.88 10.18L26.88 10.18Q26.88 8.43 27.78 7.43L27.78 7.43L27.78 7.43Q28.69 6.43 30.18 6.43L30.18 6.43L30.18 6.43Q31.68 6.43 32.59 7.41L32.59 7.41L32.59 7.41Q33.49 8.40 33.49 10.16L33.49 10.16L33.49 10.16Q33.49 11.91 32.59 12.92ZM30.18 13.03L30.18 13.03L30.18 13.03Q31.26 13.03 31.86 12.27L31.86 12.27L31.86 12.27Q32.47 11.51 32.47 10.16L32.47 10.16L32.47 10.16Q32.47 8.81 31.88 8.06L31.88 8.06L31.88 8.06Q31.29 7.31 30.18 7.31L30.18 7.31L30.18 7.31Q29.06 7.31 28.48 8.04L28.48 8.04L28.48 8.04Q27.90 8.78 27.90 10.18L27.90 10.18L27.90 10.18Q27.90 11.54 28.49 12.29L28.49 12.29L28.49 12.29Q29.08 13.03 30.18 13.03ZM39.45 13.92L39.45 13.92L39.45 13.92Q37.76 13.92 37.76 12.21L37.76 12.21L37.76 7.48L36.06 7.48L36.06 6.59L37.76 6.59L37.76 4.13L38.74 3.64L38.74 6.59L41.13 6.59L41.13 7.48L38.74 7.48L38.74 11.79L38.74 11.79Q38.74 12.39 38.94 12.69L38.94 12.69L38.94 12.69Q39.14 12.99 39.79 12.99L39.79 12.99L39.79 12.99Q40.53 12.99 41.15 12.57L41.15 12.57L41.03 13.59L41.03 13.59Q40.43 13.92 39.45 13.92ZM50.50 9.88L50.50 9.88L50.50 9.88Q50.50 10.26 50.47 10.57L50.47 10.57L45.40 10.57L45.40 10.57Q45.54 11.72 46.12 12.36L46.12 12.36L46.12 12.36Q46.69 13.01 47.61 13.01L47.61 13.01L47.61 13.01Q48.52 13.01 49.32 12.45L49.32 12.45L49.85 13.10L49.85 13.10Q48.82 13.92 47.57 13.92L47.57 13.92L47.57 13.92Q46.10 13.92 45.23 12.83L45.23 12.83L45.23 12.83Q44.37 11.75 44.37 10.16L44.37 10.16L44.37 10.16Q44.37 8.40 45.23 7.41L45.23 7.41L45.23 7.41Q46.10 6.43 47.57 6.43L47.57 6.43L47.57 6.43Q48.85 6.43 49.67 7.30L49.67 7.30L49.67 7.30Q50.50 8.18 50.50 9.88ZM45.37 9.69L45.37 9.69L49.50 9.69L49.50 9.69Q49.49 8.39 48.91 7.85L48.91 7.85L48.91 7.85Q48.33 7.31 47.57 7.31L47.57 7.31L47.57 7.31Q46.54 7.31 45.98 7.94L45.98 7.94L45.98 7.94Q45.43 8.57 45.37 9.69ZM64.01 13.75L61.84 13.75L61.84 3.95L64.06 3.95L64.06 3.95Q65.07 3.95 65.83 4.37L65.83 4.37L65.83 4.37Q66.58 4.79 67.00 5.50L67.00 5.50L67.00 5.50Q67.42 6.22 67.63 7.06L67.63 7.06L67.63 7.06Q67.83 7.90 67.83 8.85L67.83 8.85L67.83 8.85Q67.83 9.56 67.73 10.23L67.73 10.23L67.73 10.23Q67.62 10.89 67.35 11.54L67.35 11.54L67.35 11.54Q67.07 12.19 66.65 12.68L66.65 12.68L66.65 12.68Q66.23 13.16 65.56 13.45L65.56 13.45L65.56 13.45Q64.88 13.75 64.01 13.75L64.01 13.75ZM62.82 4.83L62.82 12.87L63.99 12.87L63.99 12.87Q64.78 12.87 65.35 12.52L65.35 12.52L65.35 12.52Q65.93 12.17 66.23 11.56L66.23 11.56L66.23 11.56Q66.53 10.96 66.67 10.29L66.67 10.29L66.67 10.29Q66.81 9.62 66.81 8.85L66.81 8.85L66.81 8.85Q66.81 7.15 66.15 5.99L66.15 5.99L66.15 5.99Q65.49 4.83 64.15 4.83L64.15 4.83L62.82 4.83ZM76.37 9.88L76.37 9.88L76.37 9.88Q76.37 10.26 76.34 10.57L76.34 10.57L71.27 10.57L71.27 10.57Q71.41 11.72 71.99 12.36L71.99 12.36L71.99 12.36Q72.56 13.01 73.49 13.01L73.49 13.01L73.49 13.01Q74.40 13.01 75.19 12.45L75.19 12.45L75.73 13.10L75.73 13.10Q74.69 13.92 73.44 13.92L73.44 13.92L73.44 13.92Q71.97 13.92 71.11 12.83L71.11 12.83L71.11 12.83Q70.24 11.75 70.24 10.16L70.24 10.16L70.24 10.16Q70.24 8.40 71.11 7.41L71.11 7.41L71.11 7.41Q71.97 6.43 73.44 6.43L73.44 6.43L73.44 6.43Q74.72 6.43 75.54 7.30L75.54 7.30L75.54 7.30Q76.37 8.18 76.37 9.88ZM71.25 9.69L71.25 9.69L75.38 9.69L75.38 9.69Q75.36 8.39 74.78 7.85L74.78 7.85L74.78 7.85Q74.20 7.31 73.44 7.31L73.44 7.31L73.44 7.31Q72.41 7.31 71.86 7.94L71.86 7.94L71.86 7.94Q71.30 8.57 71.25 9.69ZM82.28 13.75L81.59 13.75L78.88 6.59L79.88 6.59L81.72 11.52L81.72 11.52Q81.90 12.00 81.97 12.22L81.97 12.22L81.97 12.22Q82.04 12.00 82.22 11.52L82.22 11.52L84.01 6.59L84.99 6.59L82.28 13.75ZM98.94 13.92L98.94 13.92L98.94 13.92Q96.95 13.92 96.29 12.25L96.29 12.25L97.06 11.83L97.06 11.83Q97.37 12.49 97.74 12.76L97.74 12.76L97.74 12.76Q98.11 13.03 98.95 13.03L98.95 13.03L98.95 13.03Q99.78 13.03 100.35 12.51L100.35 12.51L100.35 12.51Q100.93 11.98 100.93 10.81L100.93 10.81L100.93 3.95L101.91 3.95L101.91 10.64L101.91 10.64Q101.91 11.59 101.63 12.27L101.63 12.27L101.63 12.27Q101.36 12.95 100.90 13.29L100.90 13.29L100.90 13.29Q100.44 13.62 99.95 13.77L99.95 13.77L99.95 13.77Q99.47 13.92 98.94 13.92ZM110.20 12.92L110.20 12.92L110.20 12.92Q109.30 13.92 107.80 13.92L107.80 13.92L107.80 13.92Q106.30 13.92 105.40 12.93L105.40 12.93L105.40 12.93Q104.50 11.94 104.50 10.18L104.50 10.18L104.50 10.18Q104.50 8.43 105.40 7.43L105.40 7.43L105.40 7.43Q106.30 6.43 107.80 6.43L107.80 6.43L107.80 6.43Q109.30 6.43 110.20 7.41L110.20 7.41L110.20 7.41Q111.10 8.40 111.10 10.16L111.10 10.16L111.10 10.16Q111.10 11.91 110.20 12.92ZM107.80 13.03L107.80 13.03L107.80 13.03Q108.88 13.03 109.48 12.27L109.48 12.27L109.48 12.27Q110.08 11.51 110.08 10.16L110.08 10.16L110.08 10.16Q110.08 8.81 109.49 8.06L109.49 8.06L109.49 8.06Q108.91 7.31 107.80 7.31L107.80 7.31L107.80 7.31Q106.68 7.31 106.10 8.04L106.10 8.04L106.10 8.04Q105.52 8.78 105.52 10.18L105.52 10.18L105.52 10.18Q105.52 11.54 106.11 12.29L106.11 12.29L106.11 12.29Q106.69 13.03 107.80 13.03ZM116.72 13.92L116.72 13.92L116.72 13.92Q116.20 13.92 115.77 13.78L115.77 13.78L115.77 13.78Q115.35 13.64 115.14 13.50L115.14 13.50L115.14 13.50Q114.94 13.36 114.63 13.10L114.63 13.10L114.63 13.75L113.65 13.75L113.65 4.13L114.63 3.64L114.63 7.29L114.63 7.29Q115.43 6.43 116.63 6.43L116.63 6.43L116.63 6.43Q118.03 6.43 118.86 7.42L118.86 7.42L118.86 7.42Q119.69 8.41 119.69 10.16L119.69 10.16L119.69 10.16Q119.69 11.97 118.90 12.94L118.90 12.94L118.90 12.94Q118.12 13.92 116.72 13.92ZM116.56 13.03L116.56 13.03L116.56 13.03Q117.60 13.03 118.13 12.28L118.13 12.28L118.13 12.28Q118.66 11.52 118.66 10.16L118.66 10.16L118.66 10.16Q118.66 8.78 118.13 8.04L118.13 8.04L118.13 8.04Q117.60 7.31 116.56 7.31L116.56 7.31L116.56 7.31Q115.89 7.31 115.38 7.64L115.38 7.64L115.38 7.64Q114.87 7.98 114.63 8.40L114.63 8.40L114.63 11.91L114.63 11.91Q114.93 12.43 115.44 12.73L115.44 12.73L115.44 12.73Q115.96 13.03 116.56 13.03ZM124.98 13.92L124.98 13.92L124.98 13.92Q124.26 13.92 123.58 13.57L123.58 13.57L123.58 13.57Q122.91 13.23 122.43 12.67L122.43 12.67L123.12 12.07L123.12 12.07Q123.97 13.05 125.06 13.05L125.06 13.05L125.06 13.05Q125.71 13.05 126.13 12.78L126.13 12.78L126.13 12.78Q126.55 12.50 126.55 12.01L126.55 12.01L126.55 12.01Q126.55 11.70 126.40 11.46L126.40 11.46L126.40 11.46Q126.25 11.21 125.94 11.01L125.94 11.01L125.94 11.01Q125.62 10.81 125.38 10.70L125.38 10.70L125.38 10.70Q125.13 10.58 124.68 10.42L124.68 10.42L124.68 10.42Q124.15 10.21 123.82 10.04L123.82 10.04L123.82 10.04Q123.49 9.87 123.14 9.62L123.14 9.62L123.14 9.62Q122.79 9.37 122.63 9.02L122.63 9.02L122.63 9.02Q122.46 8.68 122.46 8.25L122.46 8.25L122.46 8.25Q122.46 7.43 123.13 6.93L123.13 6.93L123.13 6.93Q123.80 6.43 124.85 6.43L124.85 6.43L124.85 6.43Q126.32 6.43 127.26 7.52L127.26 7.52L126.62 8.06L126.62 8.06Q125.82 7.29 124.82 7.29L124.82 7.29L124.82 7.29Q124.17 7.29 123.77 7.55L123.77 7.55L123.77 7.55Q123.38 7.80 123.38 8.23L123.38 8.23L123.38 8.23Q123.38 8.44 123.49 8.62L123.49 8.62L123.49 8.62Q123.59 8.81 123.72 8.93L123.72 8.93L123.72 8.93Q123.84 9.04 124.12 9.19L124.12 9.19L124.12 9.19Q124.40 9.34 124.57 9.40L124.57 9.40L124.57 9.40Q124.74 9.46 125.10 9.60L125.10 9.60L125.10 9.60Q125.66 9.81 125.96 9.96L125.96 9.96L125.96 9.96Q126.27 10.11 126.68 10.39L126.68 10.39L126.68 10.39Q127.09 10.67 127.28 11.05L127.28 11.05L127.28 11.05Q127.47 11.44 127.47 11.96L127.47 11.96L127.47 11.96Q127.47 12.85 126.80 13.38L126.80 13.38L126.80 13.38Q126.13 13.92 124.98 13.92Z"></path></g><!----><g data-v-423bf9ae="" id="626de89a-5d3a-4c28-94af-a9f258dcba7e" transform="matrix(1.4717570543289185,0,0,1.4717570543289185,-8.798980712890625,-25.368440628051758)" stroke="none" fill="#7DE38D"><path d="M11.146 45.898l21.073-14.072a2 2 0 1 0-2.222-3.326L8.924 42.572a6.444 6.444 0 0 0-2.871 5.37 6.444 6.444 0 0 0 2.871 5.37l21.073 14.072a1.997 1.997 0 0 0 2.774-.552 2 2 0 0 0-.552-2.774L11.146 49.985a2.422 2.422 0 0 1-1.093-2.044c0-.835.399-1.579 1.093-2.043zM90.076 42.572L69.002 28.5a2 2 0 0 0-2.222 3.326l21.073 14.072a2.422 2.422 0 0 1 1.093 2.043 2.42 2.42 0 0 1-1.093 2.044L66.781 64.058a2 2 0 1 0 2.222 3.326l21.073-14.072a6.444 6.444 0 0 0 2.871-5.37 6.444 6.444 0 0 0-2.871-5.37zM59.221 17.834a2 2 0 0 0-2.513 1.297l-18.227 57.11a2 2 0 1 0 3.81 1.215l18.227-57.109a2 2 0 0 0-1.297-2.513z"></path></g><!----></svg>